<?xml version="1.0" encoding="UTF-8"?><svg id="Layer_1" xmlns="http://www.w3.org/2000/svg" width="366.9" height="372.1" viewBox="0 0 366.9 372.1"><defs><style>.cls-1,.cls-2,.cls-3{fill:none;}.cls-4{fill:#707070;}.cls-5{fill:#e6e0db;opacity:.88;}.cls-5,.cls-2,.cls-3{isolation:isolate;}.cls-2{opacity:.05;}.cls-2,.cls-3{stroke:#231f20;stroke-miterlimit:10;}.cls-3{opacity:.1;}</style></defs><circle class="cls-5" cx="183.4" cy="183.4" r="183.4"/><g><path class="cls-4" d="m119,160.1c-.2-3.6-.3-7.1-.5-10.7,2.7.1,5.4.2,8.1.3,2.7.1,5.4.1,8.1.1s5.4,0,8.1-.1c2.7-.1,5.4-.2,8.1-.3-.2.8-.3,1.7-.3,2.5s.1,1.7.3,2.5c-1.9-.1-3.7-.2-5.3-.3s-3.3-.2-5.1-.3-3.7-.2-5.9-.3c-2.1-.1-4.7-.1-7.6-.1-.1,1.8-.1,3.5-.2,5.1s-.1,3.5-.1,5.5c0,2.2,0,4.3.1,6.4,0,2.1.1,3.6.1,4.7,2.7,0,5.1,0,7.2-.1s4.1-.1,5.8-.2c1.8-.1,3.4-.2,4.9-.2,1.5-.1,2.9-.2,4.2-.3-.2.8-.3,1.7-.3,2.6,0,.8.1,1.7.3,2.5-1.6-.2-3.4-.3-5.5-.4-2.1-.1-4.2-.2-6.3-.2s-4.1-.1-5.9-.1h-4.4c0,.5,0,1.1-.1,1.6,0,.6-.1,1.3-.1,2.2v8.3c0,3.2,0,5.8.1,7.9,0,2.1.1,3.6.1,4.7h6.4c2.3,0,4.5,0,6.8-.1,2.2-.1,4.3-.2,6.3-.3s3.7-.4,5.1-.6c-.1.4-.2.8-.2,1.3v1.3c0,.9.1,1.6.3,2.2-2.7-.1-5.4-.2-8.1-.2h-16.5c-2.7,0-5.5.1-8.3.2.2-3.6.3-7.1.5-10.7.2-3.5.2-7.1.2-10.8v-14.7c-.2-3.6-.3-7.3-.4-10.9h0Z"/><path class="cls-4" d="m159.3,214.6c1.5-1.1,2.7-2.6,3.4-4.6.8-1.9,1.3-4.3,1.5-6.9.2-2.7.3-5.7.3-8.9v-23c0-3.7-.1-7.3-.2-10.8-.1-3.5-.3-7.1-.5-10.8.8.1,1.5.2,2.3.3.7.1,1.5.1,2.2.1s1.5,0,2.2-.1,1.5-.2,2.3-.3c-.2,3.7-.4,7.3-.5,10.8s-.2,7.1-.2,10.8c0,2.5,0,5.1.1,7.8,0,2.7.1,5.3.1,7.9s.1,5.1.1,7.5v6.6c0,2.5-.4,4.8-1.3,6.9s-2.1,3.9-3.8,5.6c-1.6,1.6-3.6,2.9-5.9,3.8-2.3.9-4.7,1.4-7.4,1.4l-.7-2.3c2.5-.2,4.5-.7,6-1.8h0Z"/><path class="cls-4" d="m238.3,206.9c-.9-.1-1.6-.2-2.4-.2h-4.8c-.8,0-1.6.1-2.4.2-.4-1.3-1-2.8-1.7-4.6s-1.5-3.7-2.4-5.7-1.8-4-2.7-6-1.8-4-2.5-5.8c-1.9-.1-3.9-.1-5.9-.1h-11.5c-1.8,0-3.7.1-5.5.1-1.9,4.4-3.7,8.5-5.3,12.4s-2.8,7.2-3.5,9.8c-1-.1-2.1-.2-3.4-.2-1.2,0-2.3.1-3.4.2,4.9-9.8,9.7-19.5,14.4-29.1s9.4-19.5,14.1-29.4h1.7c1.5,3.2,3,6.7,4.7,10.5s3.4,7.6,5.2,11.4c1.8,3.9,3.5,7.7,5.3,11.5s3.4,7.3,4.9,10.6,2.9,6.2,4.2,8.7c1.1,2.4,2.1,4.4,2.9,5.7h0Zm-40.2-26c1.6,0,3.2,0,4.9.1s3.3.1,4.9.1h5.1c1.7,0,3.4-.1,5.1-.1l-10.1-21.4-9.9,21.3h0Z"/></g><path class="cls-4" d="m21.8,227.9c2.2,2.9,4.9,5.5,8,7.9,3.2,2.3,6.8,4.3,11,5.7,4.2,1.5,8.9,2.2,14.1,2.2s10.1-.9,14.4-2.7,7.9-4.2,10.9-7.3,5.3-6.7,6.9-10.8,2.4-8.6,2.4-13.3c0-7.2-1.9-12.9-5.7-17.1-3.8-4.2-8.5-7.7-14.2-10.6-5.7-2.8-11.8-5.4-18.3-7.7s-12.6-5.3-18.3-8.8c-5.7-3.5-10.4-8-14.2-13.5-3.8-5.5-5.7-12.8-5.7-22.1,0-6.6,1.2-12.6,3.6-18s5.9-10.1,10.5-14,10.1-7,16.6-9.2,13.7-3.3,21.8-3.3,14.4.9,20.1,2.7c5.7,1.8,10.9,4.6,15.7,8.3-1.5,2.7-2.7,5.5-3.6,8.5-1,3-1.9,6.7-2.9,11.3h-2.9c-.8-2.2-1.9-4.6-3.3-7.2s-3.2-5-5.6-7.2c-2.3-2.2-5.1-4-8.4-5.5s-7.1-2.2-11.6-2.2-8.7.7-12.5,2.1-7.1,3.4-9.9,6c-2.8,2.6-5,5.7-6.5,9.3-1.5,3.6-2.3,7.5-2.3,11.7,0,7.4,1.9,13.1,5.7,17.4,3.8,4.2,8.5,7.8,14.2,10.7s11.8,5.5,18.3,7.7c6.5,2.3,12.6,5.1,18.3,8.3s10.4,7.5,14.2,12.7c3.8,5.2,5.7,12.1,5.7,20.7,0,7.2-1.3,14-4,20.4s-6.5,12-11.6,16.8-11.3,8.5-18.7,11-15.7,3.9-25.1,3.9c-10,0-18.1-1.3-24.3-3.9-6.2-2.6-11.4-5.5-15.6-8.8,1.5-3.6,2.5-6.8,3-9.7.6-2.9,1.1-6.6,1.6-11.1h2.9c1.4,3,3.1,5.8,5.3,8.7h0Z"/><g><path class="cls-4" d="m153.1,265.1c.7-.5,1.2-1.2,1.6-2.1.4-.9.6-2,.7-3.2.1-1.2.1-2.6.1-4.1v-10.7c0-1.7,0-3.4-.1-5s-.1-3.3-.2-5c.4.1.7.1,1,.1s.7.1,1,.1.7,0,1-.1.7-.1,1-.1c-.1,1.7-.2,3.4-.2,5-.1,1.6-.1,3.3-.1,5v13.7c0,1.2-.2,2.2-.6,3.2-.4,1-1,1.8-1.7,2.6s-1.6,1.3-2.6,1.8c-1,.4-2.1.6-3.4.6l-.3-1.1c1.2,0,2.1-.2,2.8-.7h0Z"/><path class="cls-4" d="m163.8,253c0-3.2.8-5.6,2.4-7.4,1.6-1.8,3.9-2.7,7-2.7,1.4,0,2.7.2,3.8.6,1.1.4,1.9,1,2.6,1.7.7.7,1.2,1.5,1.6,2.5.3.9.5,2,.5,3.1v.8c0,.2,0,.5-.1.8-1.5,0-2.9-.1-4.4-.1h-7.1c-.9,0-1.8.1-2.7.1v1.1c0,1,.2,1.9.5,2.8s.8,1.6,1.4,2.3c.6.6,1.3,1.1,2.2,1.5s1.9.6,3,.6c.6,0,1.1-.1,1.7-.2.6-.1,1.1-.3,1.7-.6.6-.2,1.1-.5,1.5-.9.5-.3.9-.7,1.2-1.1l.2.1-.2,1.9c-.8.6-1.8,1.1-3.1,1.6-1.2.4-2.5.7-3.8.7-1.5,0-2.8-.2-4.1-.6-1.2-.4-2.3-1-3.2-1.9s-1.6-1.8-2.1-2.9c-.2-1.4-.5-2.5-.5-3.8h0Zm9.5-9c-1,0-1.9.2-2.6.7-.7.4-1.3,1-1.7,1.6s-.8,1.4-1,2.2-.4,1.5-.4,2.2c.9,0,1.7.1,2.6.1h5.5c.9,0,1.8-.1,2.7-.1,0-.7-.1-1.4-.2-2.2-.1-.8-.4-1.5-.7-2.2-.4-.7-.9-1.2-1.5-1.7-.7-.3-1.6-.6-2.7-.6Z"/><path class="cls-4" d="m190.9,261.5c-.3-1-.8-2.2-1.3-3.6s-1.1-3-1.8-4.7c-.6-1.7-1.3-3.4-2-5.1s-1.4-3.4-2.1-4.9c.3.1.6.1,1,.1.3,0,.6.1,1,.1.3,0,.6,0,.9-.1.3,0,.6-.1,1-.1.7,2.4,1.5,4.9,2.4,7.3.9,2.4,1.8,4.9,2.9,7.5.3-.7.7-1.7,1.2-2.9.5-1.2.9-2.5,1.4-3.8s1-2.8,1.5-4.2.9-2.7,1.3-3.9c.5.1.9.2,1.2.2.2,0,.4,0,.6-.1s.4-.1.6-.1c.7,2.5,1.5,4.9,2.4,7.3s1.9,4.9,2.8,7.5c.4-.8.8-1.8,1.2-3,.5-1.2,1-2.5,1.5-3.8s1.1-2.7,1.6-4.1c.5-1.4,1-2.7,1.5-3.9.6.1,1,.2,1.3.2.4,0,.8-.1,1.2-.2-1.6,3.1-3,6.2-4.4,9.2s-2.6,6.1-3.8,9.1c-.3,0-.7-.1-1.1-.1h-.6c-.2,0-.4,0-.5.1-.7-2.3-1.5-4.6-2.4-6.9-.9-2.3-1.8-4.8-2.9-7.3-.3.8-.7,1.7-1.2,2.9-.5,1.1-.9,2.4-1.4,3.7s-1,2.6-1.5,4-.9,2.6-1.3,3.6c-.3-.1-.7-.1-1.1-.1s-.8.1-1.1.1h0Z"/><path class="cls-4" d="m216.4,253c0-3.2.8-5.6,2.4-7.4s3.9-2.7,7-2.7c1.4,0,2.7.2,3.8.6,1.1.4,1.9,1,2.6,1.7.7.7,1.2,1.5,1.6,2.5.3.9.5,2,.5,3.1v.8c0,.2,0,.5-.1.8-1.5,0-2.9-.1-4.4-.1h-7.1c-.9,0-1.8.1-2.7.1v1.1c0,1,.2,1.9.5,2.8s.8,1.6,1.4,2.3c.6.6,1.3,1.1,2.2,1.5s1.9.6,3,.6c.6,0,1.1-.1,1.7-.2.6-.1,1.1-.3,1.7-.6.6-.2,1.1-.5,1.5-.9.5-.3.9-.7,1.2-1.1l.2.1-.2,1.9c-.8.6-1.8,1.1-3.1,1.6-1.2.4-2.5.7-3.8.7-1.5,0-2.8-.2-4.1-.6-1.2-.4-2.3-1-3.2-1.9s-1.6-1.8-2.1-2.9c-.3-1.4-.5-2.5-.5-3.8h0Zm9.5-9c-1,0-1.9.2-2.6.7-.7.4-1.3,1-1.7,1.6s-.8,1.4-1,2.2-.4,1.5-.4,2.2c.9,0,1.7.1,2.6.1h5.5c.9,0,1.8-.1,2.7-.1,0-.7-.1-1.4-.2-2.2s-.4-1.5-.7-2.2c-.4-.7-.9-1.2-1.5-1.7-.7-.3-1.6-.6-2.7-.6h0Z"/><path class="cls-4" d="m239.7,240.7c0-1,0-2.1-.1-3.1s-.1-2-.1-2.9-.1-1.7-.1-2.3c.8.1,1.4.2,1.9.2s1.1-.1,1.9-.2c-.1.6-.1,1.4-.1,2.3s-.1,1.9-.1,2.9-.1,2-.1,3.1v12.8c0,1.1,0,2.1.1,3,0,1,.1,2,.1,2.9s.1,1.6.1,2.2c-.6,0-1.2-.1-1.9-.1s-1.2,0-1.9.1c.1-.6.1-1.3.1-2.2s.1-1.9.1-2.9.1-2,.1-3v-12.8Z"/><path class="cls-4" d="m250.5,258.8c.3.3.6.6,1,.9s.9.5,1.4.7,1.1.3,1.6.3,1-.1,1.5-.2.9-.4,1.3-.7c.4-.3.7-.6.9-1.1.2-.4.3-.9.3-1.5,0-.8-.2-1.4-.7-1.8-.5-.4-1.1-.8-1.8-1-.7-.3-1.5-.5-2.4-.7s-1.6-.5-2.3-.9-1.3-.9-1.8-1.5-.7-1.5-.7-2.6c0-.9.1-1.6.4-2.3.3-.7.7-1.3,1.3-1.8s1.3-.9,2.1-1.2,1.8-.4,2.9-.4c1,0,1.9.1,2.6.4.7.3,1.4.5,2,.7-.2.4-.4.9-.6,1.4-.2.6-.3,1-.4,1.3h-.5c-.2-.6-.6-1.2-1.3-1.7-.6-.5-1.4-.7-2.3-.7-.4,0-.8.1-1.2.2-.4.1-.8.3-1.1.6s-.6.6-.8,1-.3.9-.3,1.5c0,.8.2,1.5.7,1.9s1.1.8,1.8,1.1,1.5.5,2.3.7c.9.2,1.6.5,2.4.8.7.4,1.3.8,1.8,1.4.5.6.7,1.5.7,2.6,0,.7-.2,1.5-.5,2.2s-.8,1.4-1.5,1.9c-.6.6-1.4,1-2.3,1.4-.9.3-1.9.5-3.1.5-1.3,0-2.3-.1-3.2-.4-.9-.2-1.6-.5-2.1-.8.2-.3.3-.8.5-1.4s.3-1.1.3-1.5h.5c.2.1.4.4.6.7h0Z"/></g><line class="cls-1" x1="277" y1="64.9" x2="279.6" y2="118.2"/><line class="cls-3" x1="235.3" y1="131.1" x2="262.4" y2="131.2"/><line class="cls-3" x1="287.4" y1="132.3" x2="314.6" y2="131.6"/><line class="cls-2" x1="273.1" y1="49.3" x2="274.2" y2="121.7"/><line class="cls-3" x1="273.7" y1="145.4" x2="274.6" y2="217.9"/><line class="cls-3" x1="285.2" y1="122.9" x2="296.6" y2="110.2"/><line class="cls-3" x1="265" y1="122.7" x2="253.9" y2="110.4"/><line class="cls-3" x1="284" y1="141.6" x2="295.6" y2="156.4"/><line class="cls-3" x1="263.4" y1="141.6" x2="252.5" y2="156.4"/></svg>