<svg xmlns="http://www.w3.org/2000/svg" width="25.736" height="25.736" viewBox="0 0 25.736 25.736">
  <path id="ic_shopping_cart_24px" d="M8.721,22.589a2.574,2.574,0,1,0,2.574,2.574A2.57,2.57,0,0,0,8.721,22.589ZM1,2V4.574H3.574L8.206,14.34,6.469,17.493a2.488,2.488,0,0,0-.322,1.235A2.581,2.581,0,0,0,8.721,21.3H24.162V18.728H9.261a.319.319,0,0,1-.322-.322l.039-.154,1.158-2.1h9.587a2.561,2.561,0,0,0,2.252-1.325l4.607-8.351a1.257,1.257,0,0,0,.154-.618,1.291,1.291,0,0,0-1.287-1.287H6.417L5.208,2H1ZM21.589,22.589a2.574,2.574,0,1,0,2.574,2.574A2.57,2.57,0,0,0,21.589,22.589Z" transform="translate(-1 -2)" fill="#707070"/>
</svg>
