<svg id="ic_phone_in_talk_24px" xmlns="http://www.w3.org/2000/svg" width="18" height="18" viewBox="0 0 18 18">
  <path id="ic_phone_in_talk_24px-2" data-name="ic_phone_in_talk_24px" d="M20,15.5a11.36,11.36,0,0,1-3.57-.57,1.021,1.021,0,0,0-1.02.24l-2.2,2.2a15.045,15.045,0,0,1-6.59-6.59l2.2-2.21a.96.96,0,0,0,.25-1A11.36,11.36,0,0,1,8.5,4a1,1,0,0,0-1-1H4A1,1,0,0,0,3,4,17,17,0,0,0,20,21a1,1,0,0,0,1-1V16.5A1,1,0,0,0,20,15.5ZM19,12h2a9,9,0,0,0-9-9V5A7,7,0,0,1,19,12Zm-4,0h2a5,5,0,0,0-5-5V9A3,3,0,0,1,15,12Z" transform="translate(-3 -3)" fill="#707070"/>
</svg>
