<svg id="arrow-btn-grey" xmlns="http://www.w3.org/2000/svg" width="35" height="36" viewBox="0 0 35 36">
  <defs>
    <style>
      .cls-1, .cls-2 {
        fill: #707070;
      }

      .cls-1 {
        stroke: #707070;
        opacity: 0.26;
      }

      .cls-3, .cls-5 {
        stroke: none;
      }

      .cls-4 {
        fill: none;
      }

      .cls-5 {
        fill: #707070;
      }
    </style>
  </defs>
  <g id="Ellipse_33" data-name="Ellipse 33" class="cls-1">
    <ellipse class="cls-3" cx="17.5" cy="18" rx="17.5" ry="18"/>
    <ellipse class="cls-4" cx="17.5" cy="18" rx="17" ry="17.5"/>
  </g>
  <g id="Path_9" data-name="Path 9" class="cls-2" transform="translate(28.555 18.841) rotate(141)">
    <path class="cls-3" d="M 2.000773668289185 4.93169641494751 C 1.622233629226685 4.931686401367188 1.277373671531677 4.782416343688965 1.00347363948822 4.500036716461182 C 0.6675336360931396 4.153696537017822 0.4844136238098145 3.641706466674805 0.5010735988616943 3.095356464385986 C 0.5341235995292664 2.011026620864868 1.315403580665588 1.099786520004272 2.24268364906311 1.064046502113342 L 16.84908294677734 0.5010665655136108 C 16.86753273010254 0.5003565549850464 16.88587379455566 0.499996542930603 16.90415382385254 0.499996542930603 C 17.28267288208008 0.499996542930603 17.62752342224121 0.6492565274238586 17.90141296386719 0.9316165447235107 C 18.23736381530762 1.277966499328613 18.42049407958984 1.789966583251953 18.40383338928223 2.336336612701416 C 18.37078285217285 3.420666456222534 17.58950424194336 4.331906318664551 16.66222381591797 4.36764669418335 L 2.055833578109741 4.930626392364502 C 2.037383556365967 4.931336402893066 2.01905369758606 4.93169641494751 2.000773668289185 4.93169641494751 Z"/>
    <path class="cls-5" d="M 2.000793695449829 4.43169641494751 L 2.000777006149292 4.43169641494751 C 2.012662887573242 4.43169641494751 2.024588108062744 4.431456565856934 2.036583662033081 4.430996417999268 L 16.64297294616699 3.868016481399536 C 17.30177307128906 3.842626571655273 17.8792839050293 3.134226560592651 17.9040641784668 2.321096420288086 C 17.91662406921387 1.90912652015686 17.78484344482422 1.529566526412964 17.54251289367676 1.279736518859863 C 17.41872406005859 1.152126550674438 17.20749282836914 0.999996542930603 16.90415382385254 0.999996542930603 C 16.89226341247559 0.999996542930603 16.88033294677734 1.000236511230469 16.86833381652832 1.000696539878845 L 2.261933565139771 1.563676595687866 C 1.60313355922699 1.589066505432129 1.025623559951782 2.297466516494751 1.000843644142151 3.110596656799316 C 0.988283634185791 3.522546529769897 1.120053648948669 3.902096509933472 1.36237359046936 4.151926517486572 C 1.486173629760742 4.279546737670898 1.697413563728333 4.431686401367188 2.000793695449829 4.43169641494751 M 2.000765323638916 5.431691646575928 C 0.8502983450889587 5.43166446685791 -0.03879638761281967 4.395575046539307 0.00130361330229789 3.080126523971558 C 0.04226361215114594 1.736456513404846 1.037143588066101 0.6101365089416504 2.223423719406128 0.5644165277481079 L 16.82982444763184 0.001436538528650999 C 18.01603889465332 -0.04428289830684662 18.9445629119873 1.007906198501587 18.90360450744629 2.351566553115845 C 18.86264419555664 3.695236444473267 17.86777305603027 4.821556568145752 16.68148422241211 4.867276668548584 L 2.075093507766724 5.430256366729736 C 2.050186395645142 5.431216716766357 2.025438547134399 5.431692600250244 2.000765323638916 5.431691646575928 Z"/>
  </g>
  <g id="Path_10" data-name="Path 10" class="cls-2" transform="translate(25.137 21.38) rotate(-141)">
    <path class="cls-3" d="M 16.90426254272461 4.931818008422852 C 16.88598251342773 4.931818008422852 16.86763381958008 4.931457996368408 16.84918403625488 4.930747985839844 L 2.242703199386597 4.367688179016113 C 1.315423250198364 4.331948280334473 0.5341331958770752 3.420688152313232 0.5010731816291809 2.336338043212891 C 0.484413206577301 1.789968013763428 0.6675332188606262 1.277968049049377 1.003483176231384 0.9316180348396301 C 1.277363181114197 0.6492480635643005 1.622213244438171 0.4999980628490448 2.000753164291382 0.4999980628490448 C 2.019033193588257 0.4999980628490448 2.037383317947388 0.5003580451011658 2.055833101272583 0.5010680556297302 L 16.66230392456055 1.064128041267395 C 17.5895824432373 1.099868059158325 18.37087249755859 2.011127948760986 18.40393257141113 3.095478057861328 C 18.42059326171875 3.641848087310791 18.23747253417969 4.153848171234131 17.90152359008789 4.500197887420654 C 17.62764358520508 4.782567977905273 17.28279304504395 4.931818008422852 16.90426254272461 4.931818008422852 Z"/>
    <path class="cls-5" d="M 2.000743865966797 0.9999980926513672 C 1.697393417358398 0.9999980926513672 1.486164093017578 1.15211820602417 1.362382888793945 1.279737949371338 C 1.120052337646484 1.529567956924438 0.9882736206054688 1.909127950668335 1.000843048095703 2.32109808921814 C 1.025632858276367 3.134248018264771 1.603153228759766 3.842668056488037 2.261962890625 3.868058204650879 L 16.86843299865723 4.431118011474609 C 16.88044357299805 4.431578159332275 16.89237403869629 4.431818008422852 16.90426254272461 4.431818008422852 C 17.20761299133301 4.431818008422852 17.41884231567383 4.279697895050049 17.54262351989746 4.152078151702881 C 17.78495407104492 3.902247905731201 17.91673278808594 3.522687911987305 17.9041633605957 3.110718011856079 C 17.87937355041504 2.297568082809448 17.30185317993164 1.589148044586182 16.64304351806641 1.563758134841919 L 2.03657341003418 1.000698089599609 C 2.024562835693359 1.000237941741943 2.012632369995117 0.9999980926513672 2.000743865966797 0.9999980926513672 M 2.000740051269531 2.384185791015625e-06 C 2.025413513183594 2.384185791015625e-06 2.050176620483398 0.0004777908325195312 2.075082778930664 0.001438140869140625 L 16.68156242370605 0.5644979476928711 C 17.86785316467285 0.6102280616760254 18.86273384094238 1.736567974090576 18.9037036895752 3.080238103866577 C 18.94467353820801 4.423917770385742 18.01621627807617 5.476108551025391 16.82992362976074 5.430377960205078 L 2.223443984985352 4.867318153381348 C 1.037162780761719 4.821588039398193 0.04227256774902344 3.695248126983643 0.001302719116210938 2.351577997207642 C -0.03880691528320312 1.036109924316406 0.8502731323242188 2.384185791015625e-06 2.000740051269531 2.384185791015625e-06 Z"/>
  </g>
</svg>
