<svg xmlns="http://www.w3.org/2000/svg" width="35" height="36" viewBox="0 0 35 36">
  <defs>
    <style>
      .cls-1, .cls-2 {
        fill: #707070;
      }

      .cls-1 {
        stroke: #707070;
        opacity: 0.26;
      }

      .cls-3, .cls-5 {
        stroke: none;
      }

      .cls-4 {
        fill: none;
      }

      .cls-5 {
        fill: #707070;
      }
    </style>
  </defs>
  <g id="arrow-btn-grey" transform="translate(-296 -984)">
    <g id="Ellipse_33" data-name="Ellipse 33" class="cls-1" transform="translate(296 984)">
      <ellipse class="cls-3" cx="17.5" cy="18" rx="17.5" ry="18"/>
      <ellipse class="cls-4" cx="17.5" cy="18" rx="17" ry="17.5"/>
    </g>
    <g id="Path_9" data-name="Path 9" class="cls-2" transform="translate(305.863 998.62) rotate(39)">
      <path class="cls-3" d="M 16.90415382385254 4.931695461273193 C 16.88587379455566 4.931695461273193 16.86753273010254 4.93133544921875 16.84908294677734 4.930625438690186 L 2.24268364906311 4.367645263671875 C 1.315403580665588 4.331905364990234 0.5341235995292664 3.420665264129639 0.5010735988616943 2.336335420608521 C 0.4844136238098145 1.789965391159058 0.6675435900688171 1.27797532081604 1.003493666648865 0.9316253662109375 C 1.27738356590271 0.6492553353309631 1.622233629226685 0.4999953508377075 2.000763654708862 0.4999953508377075 C 2.019043684005737 0.4999953508377075 2.037383556365967 0.5003553628921509 2.055833578109741 0.5010653734207153 L 16.66222381591797 1.064045310020447 C 17.58950424194336 1.099785327911377 18.37078285217285 2.011025428771973 18.40383338928223 3.095355272293091 C 18.42049407958984 3.641725301742554 18.23736381530762 4.153725147247314 17.90141296386719 4.500075340270996 C 17.62752342224121 4.782435417175293 17.28267288208008 4.931695461273193 16.90415382385254 4.931695461273193 Z"/>
      <path class="cls-5" d="M 2.000762939453125 0.999995231628418 C 1.697414398193359 0.999995231628418 1.486183166503906 1.152125358581543 1.362394332885742 1.279745578765869 C 1.120063781738281 1.529575347900391 0.9882831573486328 1.909135341644287 1.000843048095703 2.32109522819519 C 1.025623321533203 3.134225368499756 1.603134155273438 3.842625379562378 2.261934280395508 3.868015289306641 L 16.86832427978516 4.430995464324951 C 16.88032341003418 4.431455612182617 16.89225387573242 4.431695461273193 16.90414428710938 4.431695461273193 C 17.20749282836914 4.431695461273193 17.41872406005859 4.279565334320068 17.54251289367676 4.151945114135742 C 17.78484344482422 3.902115345001221 17.91662406921387 3.522555351257324 17.9040641784668 3.110595464706421 C 17.8792839050293 2.297465324401855 17.30177307128906 1.589065313339233 16.64297294616699 1.563675403594971 L 2.036582946777344 1.00069522857666 C 2.02458381652832 1.000235557556152 2.012653350830078 0.999995231628418 2.000762939453125 0.999995231628418 M 2.000764846801758 0 C 2.02543830871582 0 2.050186157226562 0.0004754066467285156 2.075094223022461 0.001435279846191406 L 16.68148422241211 0.564415454864502 C 17.86777305603027 0.610135555267334 18.86264419555664 1.73645544052124 18.90360450744629 3.080125331878662 C 18.9445629119873 4.423785209655762 18.01609420776367 5.475975513458252 16.82981300354004 5.43025541305542 L 2.223423004150391 4.867275238037109 C 1.037143707275391 4.821555137634277 0.04226303100585938 3.695235252380371 0.001302719116210938 2.351565361022949 C -0.03879547119140625 1.036117076873779 0.8502979278564453 0 2.000764846801758 0 Z"/>
    </g>
    <g id="Path_10" data-name="Path 10" class="cls-2" transform="translate(302.445 1001.159) rotate(-39)">
      <path class="cls-3" d="M 2.000744104385376 4.931819915771484 C 1.622214198112488 4.931809902191162 1.277354121208191 4.782549858093262 1.003474116325378 4.500179767608643 C 0.6675341725349426 4.153839588165283 0.4844141602516174 3.641839742660522 0.5010741353034973 3.095479726791382 C 0.5341341495513916 2.01112961769104 1.315424203872681 1.099869728088379 2.242704153060913 1.064129710197449 L 16.84918403625488 0.5010697245597839 C 16.86763381958008 0.5003597140312195 16.88598442077637 0.4999997317790985 16.90426445007324 0.4999997317790985 C 17.28279495239258 0.4999997317790985 17.62764358520508 0.6492497324943542 17.90152359008789 0.9316197037696838 C 18.23747444152832 1.277969717979431 18.42059326171875 1.789969682693481 18.40393447875977 2.336339712142944 C 18.37087440490723 3.420689821243286 17.58958435058594 4.331949710845947 16.66230392456055 4.367689609527588 L 2.055824041366577 4.930749893188477 C 2.037374258041382 4.931459903717041 2.019024133682251 4.931819915771484 2.000744104385376 4.931819915771484 Z"/>
      <path class="cls-5" d="M 2.000764131546021 4.431819915771484 L 2.000753164291382 4.431819915771484 C 2.012640237808228 4.431819438934326 2.024567127227783 4.43157958984375 2.036564111709595 4.431119918823242 L 16.64304351806641 3.868059635162354 C 17.30185508728027 3.842669725418091 17.87937355041504 3.134249687194824 17.9041633605957 2.321099758148193 C 17.91673469543457 1.909129738807678 17.78495407104492 1.529569745063782 17.54262351989746 1.279739737510681 C 17.41884422302246 1.152119755744934 17.20761489868164 0.9999997019767761 16.90426445007324 0.9999997019767761 C 16.89237403869629 0.9999997019767761 16.88044357299805 1.000239729881287 16.86844444274902 1.000699758529663 L 2.261964082717896 1.563759684562683 C 1.603154182434082 1.589149713516235 1.025634169578552 2.297569751739502 1.000844120979309 3.110719680786133 C 0.9882741570472717 3.522679805755615 1.120054125785828 3.902239799499512 1.362374186515808 4.152059555053711 C 1.486164212226868 4.279679775238037 1.697394132614136 4.431809902191162 2.000764131546021 4.431819915771484 M 2.00074028968811 5.431815624237061 C 0.8502733111381531 5.431797504425049 -0.03880563378334045 4.395707607269287 0.001304158009588718 3.080239772796631 C 0.04227415844798088 1.736569762229919 1.037164211273193 0.6102297306060791 2.223444223403931 0.5644997358322144 L 16.82992362976074 0.001439719460904598 C 18.01618385314941 -0.04429009184241295 18.94467353820801 1.007899522781372 18.9037036895752 2.351579666137695 C 18.86273384094238 3.695249795913696 17.86785507202148 4.821589946746826 16.68156433105469 4.867319583892822 L 2.075084209442139 5.430379867553711 C 2.050176858901978 5.431339740753174 2.025413513183594 5.431816101074219 2.00074028968811 5.431815624237061 Z"/>
    </g>
  </g>
</svg>
